<?xml version="1.0" encoding="UTF-8"?>
<svg width="1280px" height="112px" viewBox="0 0 1280 112" version="1.1" xmlns="http://www.w3.org/2000/svg" xmlns:xlink="http://www.w3.org/1999/xlink">
    <!-- Generator: Sketch 52.5 (67469) - http://www.bohemiancoding.com/sketch -->
    <title>Path 4</title>
    <desc>Created with Sketch.</desc>
    <defs>
        <filter x="-0.2%" y="-2.8%" width="100.5%" height="105.6%" filterUnits="objectBoundingBox" id="filter-1">
            <feGaussianBlur stdDeviation="1" in="SourceGraphic"></feGaussianBlur>
        </filter>
    </defs>
    <g id="Page-2" stroke="none" stroke-width="1" fill="none" fill-rule="evenodd">
        <g id="Desktop" transform="translate(0.000000, -799.000000)" fill="#1D1723">
            <path d="M-2,801.043312 C43.5755778,870.181458 86.6471564,904.750531 127.214736,904.750531 C167.782316,904.750531 258.170623,870.181458 398.379658,801.043312 C440.817309,887.344189 495.33173,921.913262 561.922921,904.750531 C628.514112,887.5878 717.990528,853.018727 830.35217,801.043312 C856.468359,885.834504 918.657477,920.403577 1016.91952,904.750531 C1115.18157,889.097485 1202.87506,854.528412 1280,801.043312 L-2,801.043312 Z" id="Path-4" filter="url(#filter-1)"></path>
        </g>
    </g>
</svg><?xml version="1.0" encoding="UTF-8"?>
<svg width="1280px" height="112px" viewBox="0 0 1280 112" version="1.1" xmlns="http://www.w3.org/2000/svg" xmlns:xlink="http://www.w3.org/1999/xlink">
    <!-- Generator: Sketch 52.5 (67469) - http://www.bohemiancoding.com/sketch -->
    <title>Path 4</title>
    <desc>Created with Sketch.</desc>
    <defs>
        <filter x="-0.2%" y="-2.8%" width="100.5%" height="105.6%" filterUnits="objectBoundingBox" id="filter-1">
            <feGaussianBlur stdDeviation="1" in="SourceGraphic"></feGaussianBlur>
        </filter>
    </defs>
    <g id="Page-2" stroke="none" stroke-width="1" fill="none" fill-rule="evenodd">
        <g id="Desktop" transform="translate(0.000000, -799.000000)" fill="#1D1723">
            <path d="M-2,801.043312 C43.5755778,870.181458 86.6471564,904.750531 127.214736,904.750531 C167.782316,904.750531 258.170623,870.181458 398.379658,801.043312 C440.817309,887.344189 495.33173,921.913262 561.922921,904.750531 C628.514112,887.5878 717.990528,853.018727 830.35217,801.043312 C856.468359,885.834504 918.657477,920.403577 1016.91952,904.750531 C1115.18157,889.097485 1202.87506,854.528412 1280,801.043312 L-2,801.043312 Z" id="Path-4" filter="url(#filter-1)"></path>
        </g>
    </g>
</svg><?xml version="1.0" encoding="UTF-8"?>
<svg width="1280px" height="112px" viewBox="0 0 1280 112" version="1.1" xmlns="http://www.w3.org/2000/svg" xmlns:xlink="http://www.w3.org/1999/xlink">
    <!-- Generator: Sketch 52.5 (67469) - http://www.bohemiancoding.com/sketch -->
    <title>Path 4</title>
    <desc>Created with Sketch.</desc>
    <defs>
        <filter x="-0.2%" y="-2.8%" width="100.5%" height="105.6%" filterUnits="objectBoundingBox" id="filter-1">
            <feGaussianBlur stdDeviation="1" in="SourceGraphic"></feGaussianBlur>
        </filter>
    </defs>
    <g id="Page-2" stroke="none" stroke-width="1" fill="none" fill-rule="evenodd">
        <g id="Desktop" transform="translate(0.000000, -799.000000)" fill="#1D1723">
            <path d="M-2,801.043312 C43.5755778,870.181458 86.6471564,904.750531 127.214736,904.750531 C167.782316,904.750531 258.170623,870.181458 398.379658,801.043312 C440.817309,887.344189 495.33173,921.913262 561.922921,904.750531 C628.514112,887.5878 717.990528,853.018727 830.35217,801.043312 C856.468359,885.834504 918.657477,920.403577 1016.91952,904.750531 C1115.18157,889.097485 1202.87506,854.528412 1280,801.043312 L-2,801.043312 Z" id="Path-4" filter="url(#filter-1)"></path>
        </g>
    </g>
</svg><?xml version="1.0" encoding="UTF-8"?>
<svg width="1280px" height="112px" viewBox="0 0 1280 112" version="1.1" xmlns="http://www.w3.org/2000/svg" xmlns:xlink="http://www.w3.org/1999/xlink">
    <!-- Generator: Sketch 52.5 (67469) - http://www.bohemiancoding.com/sketch -->
    <title>Path 4</title>
    <desc>Created with Sketch.</desc>
    <defs>
        <filter x="-0.2%" y="-2.8%" width="100.5%" height="105.6%" filterUnits="objectBoundingBox" id="filter-1">
            <feGaussianBlur stdDeviation="1" in="SourceGraphic"></feGaussianBlur>
        </filter>
    </defs>
    <g id="Page-2" stroke="none" stroke-width="1" fill="none" fill-rule="evenodd">
        <g id="Desktop" transform="translate(0.000000, -799.000000)" fill="#1D1723">
            <path d="M-2,801.043312 C43.5755778,870.181458 86.6471564,904.750531 127.214736,904.750531 C167.782316,904.750531 258.170623,870.181458 398.379658,801.043312 C440.817309,887.344189 495.33173,921.913262 561.922921,904.750531 C628.514112,887.5878 717.990528,853.018727 830.35217,801.043312 C856.468359,885.834504 918.657477,920.403577 1016.91952,904.750531 C1115.18157,889.097485 1202.87506,854.528412 1280,801.043312 L-2,801.043312 Z" id="Path-4" filter="url(#filter-1)"></path>
        </g>
    </g>
</svg>